# xmcd
#
# Track frame offsets: 
#        150
#        14602
#        27910
#        46932
#        60782
#        74065
#        86690
#        98087
#        113872
#        128255
#        138840
#        151510
#        165137
#
# Disc length: 2379 seconds
#
# Revision: 5
# Processed by: cddbd v1.5.2PL0 Copyright (c) Steve Scherf et al.
# Submitted via: ExactAudioCopy v1.1
#
DISCID=9109490d
DTITLE=Heather Myles - Sweet Talk And Good Lies
DYEAR=2002
DGENRE=Country
TTITLE0=Sweet Talk and Good Lies
TTITLE1=Nashville's Gone Hollywood
TTITLE2=Never Had A Broken Heart
TTITLE3=One Man Woman Again
TTITLE4=Little Chapel
TTITLE5=By The Time I Get To Phoenix
TTITLE6=One And Only Lover
TTITLE7=Big Cars
TTITLE8=The Love You Left Behind
TTITLE9=If The Truth Hurts
TTITLE10=Homewrecker Blues
TTITLE11=Sweet Little Dangerous
TTITLE12=Cry Me A River
EXTD=2002 Rounder Rec. RRCD 3179 YEAR: 2002
EXTT0=
EXTT1=
EXTT2=
EXTT3=
EXTT4=
EXTT5=
EXTT6=
EXTT7=
EXTT8=
EXTT9=
EXTT10=
EXTT11=
EXTT12=
PLAYORDER=
